<svg width="800" height="800" viewBox="0 0 800 800" fill="none" xmlns="http://www.w3.org/2000/svg">
<path d="M37.6153 242.16H92.1753V566H37.6153V242.16Z" fill="#F7F7F7"/>
<path d="M414.582 338.08C439.809 338.08 458.582 345.707 470.902 360.96C483.222 375.92 489.382 398.8 489.382 429.6V566H434.382V431.36C434.382 413.76 431.449 401.147 425.582 393.52C420.009 385.6 410.622 381.64 397.422 381.64C382.169 381.64 370.142 387.067 361.342 397.92C352.835 408.48 348.582 423.147 348.582 441.92V566H293.582V431.36C293.582 414.053 290.502 401.44 284.342 393.52C278.475 385.6 269.089 381.64 256.182 381.64C240.929 381.64 228.902 387.067 220.102 397.92C211.302 408.48 206.902 423.147 206.902 441.92V566H152.342V406.72C152.342 383.253 151.169 362.28 148.822 343.8H200.302L204.262 379C210.715 365.8 219.955 355.68 231.982 348.64C244.302 341.6 258.382 338.08 274.222 338.08C308.249 338.08 330.395 352.16 340.662 380.32C347.702 367.12 357.675 356.853 370.582 349.52C383.782 341.893 398.449 338.08 414.582 338.08ZM762.804 343.8V558.96C762.804 593.573 753.271 619.827 734.204 637.72C715.137 655.613 687.124 664.56 650.164 664.56C615.844 664.56 585.631 657.373 559.524 643L568.324 601.2C595.311 615.28 622.151 622.32 648.844 622.32C688.444 622.32 708.244 602.667 708.244 563.36V519.36C701.497 531.387 691.671 541.213 678.764 548.84C665.857 556.173 651.337 559.84 635.204 559.84C615.844 559.84 598.537 555.293 583.284 546.2C568.324 536.813 556.591 523.76 548.084 507.04C539.871 490.027 535.764 470.667 535.764 448.96C535.764 427.253 539.871 408.04 548.084 391.32C556.591 374.307 568.324 361.253 583.284 352.16C598.537 342.773 615.844 338.08 635.204 338.08C651.631 338.08 666.151 341.6 678.764 348.64C691.671 355.387 701.497 364.92 708.244 377.24V343.8H762.804ZM649.724 516.72C667.911 516.72 682.137 510.707 692.404 498.68C702.964 486.653 708.244 470.08 708.244 448.96C708.244 427.84 703.111 411.267 692.844 399.24C682.577 387.213 668.204 381.2 649.724 381.2C631.537 381.2 617.164 387.213 606.604 399.24C596.337 411.267 591.204 427.84 591.204 448.96C591.204 470.08 596.337 486.653 606.604 498.68C617.164 510.707 631.537 516.72 649.724 516.72Z" fill="#4EA699"/>
<path d="M37.6153 242.16V239.16H34.6153V242.16H37.6153ZM92.1753 242.16H95.1753V239.16H92.1753V242.16ZM92.1753 566V569H95.1753V566H92.1753ZM37.6153 566H34.6153V569H37.6153V566ZM37.6153 245.16H92.1753V239.16H37.6153V245.16ZM89.1753 242.16V566H95.1753V242.16H89.1753ZM92.1753 563H37.6153V569H92.1753V563ZM40.6153 566V242.16H34.6153V566H40.6153ZM470.902 360.96L468.568 362.845L468.577 362.856L468.586 362.867L470.902 360.96ZM489.382 566V569H492.382V566H489.382ZM434.382 566H431.382V569H434.382V566ZM425.582 393.52L423.128 395.246L423.165 395.299L423.204 395.349L425.582 393.52ZM361.342 397.92L359.012 396.031L359.006 396.038L361.342 397.92ZM348.582 566V569H351.582V566H348.582ZM293.582 566H290.582V569H293.582V566ZM284.342 393.52L281.931 395.306L281.952 395.334L281.974 395.362L284.342 393.52ZM220.102 397.92L222.407 399.841L222.419 399.825L222.432 399.809L220.102 397.92ZM206.902 566V569H209.902V566H206.902ZM152.342 566H149.342V569H152.342V566ZM148.822 343.8V340.8H145.417L145.846 344.178L148.822 343.8ZM200.302 343.8L203.283 343.465L202.983 340.8H200.302V343.8ZM204.262 379L201.281 379.335L202.432 389.573L206.957 380.318L204.262 379ZM231.982 348.64L230.493 346.035L230.48 346.043L230.466 346.051L231.982 348.64ZM340.662 380.32L337.843 381.348L340.146 387.663L343.309 381.732L340.662 380.32ZM370.582 349.52L372.064 352.128L372.073 352.123L372.083 352.118L370.582 349.52ZM414.582 341.08C439.184 341.08 456.974 348.49 468.568 362.845L473.236 359.075C460.19 342.923 440.433 335.08 414.582 335.08V341.08ZM468.586 362.867C480.269 377.053 486.382 399.111 486.382 429.6H492.382C492.382 398.489 486.175 374.787 473.218 359.053L468.586 362.867ZM486.382 429.6V566H492.382V429.6H486.382ZM489.382 563H434.382V569H489.382V563ZM437.382 566V431.36H431.382V566H437.382ZM437.382 431.36C437.382 413.579 434.448 400.126 427.96 391.691L423.204 395.349C428.449 402.168 431.382 413.941 431.382 431.36H437.382ZM428.035 391.794C421.71 382.805 411.212 378.64 397.422 378.64V384.64C410.031 384.64 418.307 388.395 423.128 395.246L428.035 391.794ZM397.422 378.64C381.359 378.64 368.438 384.404 359.012 396.031L363.672 399.809C371.846 389.729 382.978 384.64 397.422 384.64V378.64ZM359.006 396.038C349.931 407.304 345.582 422.722 345.582 441.92H351.582C351.582 423.571 355.74 409.656 363.678 399.802L359.006 396.038ZM345.582 441.92V566H351.582V441.92H345.582ZM348.582 563H293.582V569H348.582V563ZM296.582 566V431.36H290.582V566H296.582ZM296.582 431.36C296.582 413.822 293.484 400.388 286.71 391.678L281.974 395.362C287.52 402.492 290.582 414.285 290.582 431.36H296.582ZM286.753 391.734C280.153 382.824 269.717 378.64 256.182 378.64V384.64C268.46 384.64 276.798 388.376 281.931 395.306L286.753 391.734ZM256.182 378.64C240.119 378.64 227.198 384.404 217.772 396.031L222.432 399.809C230.606 389.729 241.738 384.64 256.182 384.64V378.64ZM217.797 395.999C208.407 407.267 203.902 422.701 203.902 441.92H209.902C209.902 423.592 214.196 409.693 222.407 399.841L217.797 395.999ZM203.902 441.92V566H209.902V441.92H203.902ZM206.902 563H152.342V569H206.902V563ZM155.342 566V406.72H149.342V566H155.342ZM155.342 406.72C155.342 383.158 154.164 362.055 151.798 343.422L145.846 344.178C148.173 362.505 149.342 383.349 149.342 406.72H155.342ZM148.822 346.8H200.302V340.8H148.822V346.8ZM197.321 344.135L201.281 379.335L207.243 378.665L203.283 343.465L197.321 344.135ZM206.957 380.318C213.166 367.618 222.009 357.954 233.497 351.229L230.466 346.051C217.901 353.406 208.265 363.982 201.567 377.682L206.957 380.318ZM233.47 351.245C245.286 344.493 258.842 341.08 274.222 341.08V335.08C257.922 335.08 243.318 338.707 230.493 346.035L233.47 351.245ZM274.222 341.08C290.832 341.08 304.274 344.516 314.742 351.172C325.18 357.808 332.903 367.796 337.843 381.348L343.48 379.292C338.154 364.684 329.67 353.552 317.961 346.108C306.283 338.684 291.639 335.08 274.222 335.08V341.08ZM343.309 381.732C350.084 369.029 359.655 359.179 372.064 352.128L369.1 346.912C355.695 354.528 345.32 365.211 338.015 378.908L343.309 381.732ZM372.083 352.118C384.8 344.77 398.944 341.08 414.582 341.08V335.08C397.954 335.08 382.764 339.017 369.081 346.922L372.083 352.118ZM762.804 343.8H765.804V340.8H762.804V343.8ZM734.204 637.72L732.151 635.532L732.151 635.532L734.204 637.72ZM559.524 643L556.588 642.382L556.131 644.556L558.077 645.628L559.524 643ZM568.324 601.2L569.712 598.54L566.204 596.71L565.388 600.582L568.324 601.2ZM708.244 519.36H711.244V507.88L705.628 517.892L708.244 519.36ZM678.764 548.84L680.246 551.448L680.268 551.436L680.29 551.423L678.764 548.84ZM583.284 546.2L581.69 548.741L581.719 548.759L581.748 548.777L583.284 546.2ZM548.084 507.04L545.382 508.344L545.396 508.372L545.41 508.4L548.084 507.04ZM548.084 391.32L545.401 389.978L545.396 389.988L545.391 389.997L548.084 391.32ZM583.284 352.16L584.842 354.724L584.849 354.719L584.856 354.715L583.284 352.16ZM678.764 348.64L677.302 351.26L677.338 351.28L677.374 351.299L678.764 348.64ZM708.244 377.24L705.613 378.681L711.244 377.24H708.244ZM708.244 343.8V340.8H705.244V343.8H708.244ZM692.404 498.68L690.15 496.701L690.136 496.716L690.122 496.732L692.404 498.68ZM692.844 399.24L690.562 401.188L690.562 401.188L692.844 399.24ZM606.604 399.24L604.35 397.261L604.336 397.276L604.322 397.292L606.604 399.24ZM606.604 498.68L604.322 500.628L604.336 500.644L604.35 500.659L606.604 498.68ZM759.804 343.8V558.96H765.804V343.8H759.804ZM759.804 558.96C759.804 593.025 750.435 618.373 732.151 635.532L736.257 639.908C756.106 621.28 765.804 594.121 765.804 558.96H759.804ZM732.151 635.532C713.835 652.722 686.677 661.56 650.164 661.56V667.56C687.571 667.56 716.44 658.505 736.257 639.908L732.151 635.532ZM650.164 661.56C616.273 661.56 586.571 654.466 560.971 640.372L558.077 645.628C584.69 660.28 615.416 667.56 650.164 667.56V661.56ZM562.46 643.618L571.26 601.818L565.388 600.582L556.588 642.382L562.46 643.618ZM566.936 603.86C594.291 618.132 621.603 625.32 648.844 625.32V619.32C622.698 619.32 596.331 612.428 569.712 598.54L566.936 603.86ZM648.844 625.32C669.101 625.32 684.846 620.292 695.507 609.709C706.173 599.122 711.244 583.481 711.244 563.36H705.244C705.244 582.545 700.415 596.384 691.281 605.451C682.142 614.521 668.187 619.32 648.844 619.32V625.32ZM711.244 563.36V519.36H705.244V563.36H711.244ZM705.628 517.892C699.162 529.418 689.73 538.875 677.238 546.257L680.29 551.423C693.611 543.551 703.833 533.355 710.86 520.828L705.628 517.892ZM677.282 546.232C664.866 553.286 650.864 556.84 635.204 556.84V562.84C651.811 562.84 666.849 559.06 680.246 551.448L677.282 546.232ZM635.204 556.84C616.335 556.84 599.568 552.415 584.82 543.623L581.748 548.777C597.507 558.172 615.354 562.84 635.204 562.84V556.84ZM584.879 543.659C570.407 534.579 559.034 521.947 550.758 505.68L545.41 508.4C554.147 525.573 566.241 539.048 581.69 548.741L584.879 543.659ZM550.786 505.736C542.796 489.186 538.764 470.282 538.764 448.96H532.764C532.764 471.051 536.945 490.868 545.382 508.344L550.786 505.736ZM538.764 448.96C538.764 427.636 542.796 408.888 550.777 392.643L545.391 389.997C536.945 407.192 532.764 426.87 532.764 448.96H538.764ZM550.767 392.662C559.044 376.108 570.406 363.498 584.842 354.724L581.726 349.596C566.242 359.008 554.137 372.505 545.401 389.978L550.767 392.662ZM584.856 354.715C599.599 345.643 616.353 341.08 635.204 341.08V335.08C615.336 335.08 597.476 339.904 581.712 349.605L584.856 354.715ZM635.204 341.08C651.19 341.08 665.194 344.502 677.302 351.26L680.226 346.02C667.108 338.698 652.071 335.08 635.204 335.08V341.08ZM677.374 351.299C689.776 357.782 699.162 366.9 705.613 378.681L710.875 375.799C703.833 362.94 693.565 352.992 680.154 345.981L677.374 351.299ZM711.244 377.24V343.8H705.244V377.24H711.244ZM708.244 346.8H762.804V340.8H708.244V346.8ZM649.724 519.72C668.642 519.72 683.76 513.426 694.686 500.628L690.122 496.732C680.515 507.987 667.18 513.72 649.724 513.72V519.72ZM694.658 500.659C705.835 487.93 711.244 470.572 711.244 448.96H705.244C705.244 469.588 700.093 485.376 690.15 496.701L694.658 500.659ZM711.244 448.96C711.244 427.368 705.992 410.021 695.126 397.292L690.562 401.188C700.229 412.512 705.244 428.312 705.244 448.96H711.244ZM695.126 397.292C684.191 384.482 668.918 378.2 649.724 378.2V384.2C667.49 384.2 680.964 389.944 690.562 401.188L695.126 397.292ZM649.724 378.2C630.805 378.2 615.56 384.493 604.35 397.261L608.858 401.219C618.768 389.934 632.27 384.2 649.724 384.2V378.2ZM604.322 397.292C593.456 410.021 588.204 427.368 588.204 448.96H594.204C594.204 428.312 599.219 412.512 608.886 401.188L604.322 397.292ZM588.204 448.96C588.204 470.552 593.456 487.899 604.322 500.628L608.886 496.732C599.219 485.408 594.204 469.608 594.204 448.96H588.204ZM604.35 500.659C615.56 513.427 630.805 519.72 649.724 519.72V513.72C632.27 513.72 618.768 507.986 608.858 496.701L604.35 500.659Z" fill="#303841"/>
</svg>
