<svg width="800" height="800" viewBox="0 0 800 800" fill="none" xmlns="http://www.w3.org/2000/svg">
<path d="M172.565 269.6H191.165V380H172.565V269.6ZM280.677 304.25V380H262.377V368.3C259.977 372.5 256.777 375.7 252.777 377.9C248.777 380.1 244.177 381.2 238.977 381.2C220.477 381.2 211.227 370.8 211.227 350V304.25H229.827V350.15C229.827 355.65 230.927 359.7 233.127 362.3C235.427 364.9 238.927 366.2 243.627 366.2C249.127 366.2 253.527 364.4 256.827 360.8C260.127 357.2 261.777 352.4 261.777 346.4V304.25H280.677ZM335.382 381.2C327.482 381.2 320.632 379.6 314.832 376.4C309.032 373.2 304.582 368.7 301.482 362.9C298.382 357 296.832 350.1 296.832 342.2C296.832 334.3 298.432 327.35 301.632 321.35C304.932 315.35 309.532 310.7 315.432 307.4C321.432 304 328.332 302.3 336.132 302.3C341.532 302.3 346.732 303.15 351.732 304.85C356.832 306.55 360.882 308.9 363.882 311.9L358.632 325.1C355.432 322.5 352.032 320.55 348.432 319.25C344.832 317.85 341.282 317.15 337.782 317.15C330.982 317.15 325.682 319.3 321.882 323.6C318.082 327.8 316.182 333.9 316.182 341.9C316.182 349.9 318.032 356 321.732 360.2C325.532 364.4 330.882 366.5 337.782 366.5C341.282 366.5 344.832 365.8 348.432 364.4C352.032 363 355.432 361 358.632 358.4L363.882 371.6C360.682 374.6 356.532 376.95 351.432 378.65C346.332 380.35 340.982 381.2 335.382 381.2ZM376.471 304.25H395.071V380H376.471V304.25ZM396.121 269.9V288.35H375.271V269.9H396.121ZM488.033 304.25V380H469.583V367.85C467.283 372.05 463.983 375.35 459.683 377.75C455.383 380.05 450.483 381.2 444.983 381.2C438.383 381.2 432.533 379.6 427.433 376.4C422.333 373.2 418.383 368.65 415.583 362.75C412.783 356.85 411.383 350 411.383 342.2C411.383 334.4 412.783 327.5 415.583 321.5C418.483 315.4 422.483 310.7 427.583 307.4C432.683 304 438.483 302.3 444.983 302.3C450.483 302.3 455.383 303.5 459.683 305.9C463.983 308.2 467.283 311.45 469.583 315.65V304.25H488.033ZM450.083 366.5C456.283 366.5 461.083 364.35 464.483 360.05C467.883 355.75 469.583 349.7 469.583 341.9C469.583 333.9 467.883 327.75 464.483 323.45C461.083 319.15 456.233 317 449.933 317C443.733 317 438.883 319.25 435.383 323.75C431.983 328.15 430.283 334.3 430.283 342.2C430.283 350 431.983 356 435.383 360.2C438.883 364.4 443.783 366.5 450.083 366.5ZM551.804 302.3C569.904 302.3 578.954 312.7 578.954 333.5V380H560.204V334.4C560.204 328.4 559.054 324.05 556.754 321.35C554.454 318.55 550.904 317.15 546.104 317.15C540.404 317.15 535.804 319 532.304 322.7C528.804 326.3 527.054 331.1 527.054 337.1V380H508.454V325.7C508.454 317.7 508.054 310.55 507.254 304.25H524.804L526.154 316.7C528.754 312.1 532.254 308.55 536.654 306.05C541.154 303.55 546.204 302.3 551.804 302.3Z" fill="#F7F7F7"/>
<path d="M172.565 269.6V268.6H171.565V269.6H172.565ZM191.165 269.6H192.165V268.6H191.165V269.6ZM191.165 380V381H192.165V380H191.165ZM172.565 380H171.565V381H172.565V380ZM172.565 270.6H191.165V268.6H172.565V270.6ZM190.165 269.6V380H192.165V269.6H190.165ZM191.165 379H172.565V381H191.165V379ZM173.565 380V269.6H171.565V380H173.565ZM280.677 304.25H281.677V303.25H280.677V304.25ZM280.677 380V381H281.677V380H280.677ZM262.377 380H261.377V381H262.377V380ZM262.377 368.3H263.377V364.534L261.508 367.804L262.377 368.3ZM252.777 377.9L252.295 377.024L252.295 377.024L252.777 377.9ZM211.227 304.25V303.25H210.227V304.25H211.227ZM229.827 304.25H230.827V303.25H229.827V304.25ZM233.127 362.3L232.363 362.946L232.37 362.954L232.378 362.963L233.127 362.3ZM261.777 304.25V303.25H260.777V304.25H261.777ZM279.677 304.25V380H281.677V304.25H279.677ZM280.677 379H262.377V381H280.677V379ZM263.377 380V368.3H261.377V380H263.377ZM261.508 367.804C259.194 371.854 256.124 374.918 252.295 377.024L253.258 378.776C257.43 376.482 260.759 373.146 263.245 368.796L261.508 367.804ZM252.295 377.024C248.462 379.132 244.032 380.2 238.977 380.2V382.2C244.321 382.2 249.091 381.068 253.258 378.776L252.295 377.024ZM238.977 380.2C229.913 380.2 223.289 377.658 218.911 372.735C214.513 367.791 212.227 360.273 212.227 350H210.227C210.227 360.527 212.565 368.609 217.417 374.065C222.289 379.542 229.54 382.2 238.977 382.2V380.2ZM212.227 350V304.25H210.227V350H212.227ZM211.227 305.25H229.827V303.25H211.227V305.25ZM228.827 304.25V350.15H230.827V304.25H228.827ZM228.827 350.15C228.827 355.75 229.941 360.083 232.363 362.946L233.89 361.654C231.912 359.317 230.827 355.55 230.827 350.15H228.827ZM232.378 362.963C234.928 365.846 238.746 367.2 243.627 367.2V365.2C239.107 365.2 235.925 363.954 233.876 361.637L232.378 362.963ZM243.627 367.2C249.368 367.2 254.049 365.31 257.564 361.476L256.089 360.124C253.004 363.49 248.885 365.2 243.627 365.2V367.2ZM257.564 361.476C261.069 357.651 262.777 352.59 262.777 346.4H260.777C260.777 352.21 259.184 356.749 256.089 360.124L257.564 361.476ZM262.777 346.4V304.25H260.777V346.4H262.777ZM261.777 305.25H280.677V303.25H261.777V305.25ZM314.832 376.4L315.315 375.524L315.315 375.524L314.832 376.4ZM301.482 362.9L300.597 363.365L300.6 363.371L301.482 362.9ZM301.632 321.35L300.756 320.868L300.75 320.879L301.632 321.35ZM315.432 307.4L315.92 308.273L315.925 308.27L315.432 307.4ZM351.732 304.85L351.41 305.797L351.416 305.799L351.732 304.85ZM363.882 311.9L364.811 312.27L365.054 311.658L364.589 311.193L363.882 311.9ZM358.632 325.1L358.001 325.876L359.058 326.735L359.561 325.47L358.632 325.1ZM348.432 319.25L348.07 320.182L348.081 320.186L348.092 320.191L348.432 319.25ZM321.882 323.6L322.624 324.271L322.631 324.262L321.882 323.6ZM321.732 360.2L320.982 360.861L320.99 360.871L321.732 360.2ZM348.432 364.4L348.07 363.468L348.07 363.468L348.432 364.4ZM358.632 358.4L359.561 358.03L359.058 356.765L358.001 357.624L358.632 358.4ZM363.882 371.6L364.566 372.33L365.063 371.864L364.811 371.23L363.882 371.6ZM351.432 378.65L351.116 377.701L351.432 378.65ZM335.382 380.2C327.618 380.2 320.941 378.628 315.315 375.524L314.349 377.276C320.323 380.572 327.346 382.2 335.382 382.2V380.2ZM315.315 375.524C309.683 372.417 305.372 368.057 302.364 362.429L300.6 363.371C303.792 369.343 308.381 373.983 314.349 377.276L315.315 375.524ZM302.367 362.435C299.355 356.703 297.832 349.968 297.832 342.2H295.832C295.832 350.232 297.409 357.297 300.597 363.365L302.367 362.435ZM297.832 342.2C297.832 334.437 299.403 327.654 302.514 321.821L300.75 320.879C297.461 327.046 295.832 334.163 295.832 342.2H297.832ZM302.508 321.832C305.719 315.994 310.186 311.48 315.92 308.273L314.944 306.527C308.878 309.92 304.145 314.706 300.756 320.868L302.508 321.832ZM315.925 308.27C321.756 304.966 328.482 303.3 336.132 303.3V301.3C328.182 301.3 321.108 303.034 314.939 306.53L315.925 308.27ZM336.132 303.3C341.425 303.3 346.516 304.133 351.41 305.797L352.054 303.903C346.948 302.167 341.639 301.3 336.132 301.3V303.3ZM351.416 305.799C356.407 307.462 360.31 309.742 363.175 312.607L364.589 311.193C361.454 308.058 357.257 305.638 352.048 303.901L351.416 305.799ZM362.953 311.53L357.703 324.73L359.561 325.47L364.811 312.27L362.953 311.53ZM359.263 324.324C355.982 321.659 352.485 319.65 348.772 318.309L348.092 320.191C351.579 321.45 354.882 323.341 358.001 325.876L359.263 324.324ZM348.794 318.318C345.091 316.878 341.418 316.15 337.782 316.15V318.15C341.146 318.15 344.573 318.822 348.07 320.182L348.794 318.318ZM337.782 316.15C330.754 316.15 325.158 318.383 321.133 322.938L322.631 324.262C326.206 320.217 331.211 318.15 337.782 318.15V316.15ZM321.14 322.929C317.117 327.377 315.182 333.754 315.182 341.9H317.182C317.182 334.046 319.048 328.223 322.624 324.271L321.14 322.929ZM315.182 341.9C315.182 350.04 317.064 356.413 320.982 360.861L322.482 359.539C319 355.587 317.182 349.76 317.182 341.9H315.182ZM320.99 360.871C325.021 365.325 330.666 367.5 337.782 367.5V365.5C331.098 365.5 326.043 363.475 322.474 359.529L320.99 360.871ZM337.782 367.5C341.418 367.5 345.091 366.772 348.794 365.332L348.07 363.468C344.573 364.828 341.146 365.5 337.782 365.5V367.5ZM348.794 365.332C352.498 363.892 355.987 361.837 359.263 359.176L358.001 357.624C354.877 360.163 351.566 362.108 348.07 363.468L348.794 365.332ZM357.703 358.77L362.953 371.97L364.811 371.23L359.561 358.03L357.703 358.77ZM363.198 370.87C360.124 373.752 356.109 376.037 351.116 377.701L351.748 379.599C356.955 377.863 361.24 375.448 364.566 372.33L363.198 370.87ZM351.116 377.701C346.122 379.366 340.879 380.2 335.382 380.2V382.2C341.085 382.2 346.542 381.334 351.748 379.599L351.116 377.701ZM376.471 304.25V303.25H375.471V304.25H376.471ZM395.071 304.25H396.071V303.25H395.071V304.25ZM395.071 380V381H396.071V380H395.071ZM376.471 380H375.471V381H376.471V380ZM396.121 269.9H397.121V268.9H396.121V269.9ZM396.121 288.35V289.35H397.121V288.35H396.121ZM375.271 288.35H374.271V289.35H375.271V288.35ZM375.271 269.9V268.9H374.271V269.9H375.271ZM376.471 305.25H395.071V303.25H376.471V305.25ZM394.071 304.25V380H396.071V304.25H394.071ZM395.071 379H376.471V381H395.071V379ZM377.471 380V304.25H375.471V380H377.471ZM395.121 269.9V288.35H397.121V269.9H395.121ZM396.121 287.35H375.271V289.35H396.121V287.35ZM376.271 288.35V269.9H374.271V288.35H376.271ZM375.271 270.9H396.121V268.9H375.271V270.9ZM488.033 304.25H489.033V303.25H488.033V304.25ZM488.033 380V381H489.033V380H488.033ZM469.583 380H468.583V381H469.583V380ZM469.583 367.85H470.583L468.706 367.37L469.583 367.85ZM459.683 377.75L460.154 378.632L460.162 378.628L460.17 378.623L459.683 377.75ZM427.433 376.4L426.901 377.247L426.901 377.247L427.433 376.4ZM415.583 362.75L416.486 362.321L415.583 362.75ZM415.583 321.5L414.68 321.071L414.677 321.077L415.583 321.5ZM427.583 307.4L428.126 308.24L428.138 308.232L427.583 307.4ZM459.683 305.9L459.195 306.773L459.203 306.778L459.211 306.782L459.683 305.9ZM469.583 315.65L468.706 316.13L470.583 315.65H469.583ZM469.583 304.25V303.25H468.583V304.25H469.583ZM464.483 360.05L465.267 360.67L465.267 360.67L464.483 360.05ZM464.483 323.45L463.698 324.07L463.698 324.07L464.483 323.45ZM435.383 323.75L434.593 323.136L434.592 323.139L435.383 323.75ZM435.383 360.2L434.606 360.829L434.61 360.835L434.615 360.84L435.383 360.2ZM487.033 304.25V380H489.033V304.25H487.033ZM488.033 379H469.583V381H488.033V379ZM470.583 380V367.85H468.583V380H470.583ZM468.706 367.37C466.499 371.4 463.336 374.566 459.195 376.877L460.17 378.623C464.63 376.134 468.067 372.7 470.46 368.33L468.706 367.37ZM459.211 376.868C455.074 379.081 450.34 380.2 444.983 380.2V382.2C450.626 382.2 455.692 381.019 460.154 378.632L459.211 376.868ZM444.983 380.2C438.552 380.2 432.89 378.643 427.964 375.553L426.901 377.247C432.176 380.557 438.214 382.2 444.983 382.2V380.2ZM427.964 375.553C423.039 372.463 419.212 368.064 416.486 362.321L414.679 363.179C417.554 369.236 421.626 373.937 426.901 377.247L427.964 375.553ZM416.486 362.321C413.761 356.579 412.383 349.88 412.383 342.2H410.383C410.383 350.12 411.805 357.121 414.679 363.179L416.486 362.321ZM412.383 342.2C412.383 334.52 413.761 327.769 416.489 321.923L414.677 321.077C411.805 327.231 410.383 334.28 410.383 342.2H412.383ZM416.486 321.929C419.316 315.978 423.199 311.428 428.126 308.24L427.04 306.56C421.767 309.972 417.65 314.822 414.68 321.071L416.486 321.929ZM428.138 308.232C433.063 304.948 438.668 303.3 444.983 303.3V301.3C438.298 301.3 432.303 303.052 427.028 306.568L428.138 308.232ZM444.983 303.3C450.333 303.3 455.061 304.466 459.195 306.773L460.17 305.027C455.704 302.534 450.633 301.3 444.983 301.3V303.3ZM459.211 306.782C463.343 308.992 466.501 312.104 468.706 316.13L470.46 315.17C468.065 310.796 464.622 307.408 460.154 305.018L459.211 306.782ZM470.583 315.65V304.25H468.583V315.65H470.583ZM469.583 305.25H488.033V303.25H469.583V305.25ZM450.083 367.5C456.543 367.5 461.651 365.244 465.267 360.67L463.698 359.43C460.515 363.456 456.022 365.5 450.083 365.5V367.5ZM465.267 360.67C468.855 356.132 470.583 349.832 470.583 341.9H468.583C468.583 349.568 466.91 355.368 463.698 359.43L465.267 360.67ZM470.583 341.9C470.583 333.775 468.858 327.371 465.267 322.83L463.698 324.07C466.907 328.129 468.583 334.025 468.583 341.9H470.583ZM465.267 322.83C461.648 318.252 456.487 316 449.933 316V318C455.979 318 460.518 320.048 463.698 324.07L465.267 322.83ZM449.933 316C443.455 316 438.301 318.369 434.593 323.136L436.172 324.364C439.464 320.131 444.01 318 449.933 318V316ZM434.592 323.139C431.01 327.774 429.283 334.169 429.283 342.2H431.283C431.283 334.431 432.956 328.526 436.174 324.361L434.592 323.139ZM429.283 342.2C429.283 350.13 431.01 356.387 434.606 360.829L436.16 359.571C432.956 355.613 431.283 349.87 431.283 342.2H429.283ZM434.615 360.84C438.335 365.304 443.537 367.5 450.083 367.5V365.5C444.029 365.5 439.431 363.496 436.151 359.56L434.615 360.84ZM578.954 380V381H579.954V380H578.954ZM560.204 380H559.204V381H560.204V380ZM556.754 321.35L555.981 321.985L555.987 321.992L555.993 321.998L556.754 321.35ZM532.304 322.7L533.021 323.397L533.03 323.387L532.304 322.7ZM527.054 380V381H528.054V380H527.054ZM508.454 380H507.454V381H508.454V380ZM507.254 304.25V303.25H506.119L506.262 304.376L507.254 304.25ZM524.804 304.25L525.798 304.142L525.701 303.25H524.804V304.25ZM526.154 316.7L525.16 316.808L525.495 319.898L527.024 317.192L526.154 316.7ZM536.654 306.05L536.168 305.176L536.16 305.181L536.654 306.05ZM551.804 303.3C560.661 303.3 567.132 305.838 571.412 310.756C575.715 315.701 577.954 323.223 577.954 333.5H579.954C579.954 322.977 577.668 314.899 572.921 309.444C568.151 303.962 561.047 301.3 551.804 301.3V303.3ZM577.954 333.5V380H579.954V333.5H577.954ZM578.954 379H560.204V381H578.954V379ZM561.204 380V334.4H559.204V380H561.204ZM561.204 334.4C561.204 328.313 560.045 323.671 557.515 320.702L555.993 321.998C558.063 324.429 559.204 328.487 559.204 334.4H561.204ZM557.527 320.715C554.979 317.614 551.099 316.15 546.104 316.15V318.15C550.709 318.15 553.928 319.486 555.981 321.985L557.527 320.715ZM546.104 316.15C540.165 316.15 535.29 318.088 531.577 322.013L533.03 323.387C536.318 319.912 540.643 318.15 546.104 318.15V316.15ZM531.587 322.003C527.871 325.825 526.054 330.894 526.054 337.1H528.054C528.054 331.306 529.737 326.775 533.021 323.397L531.587 322.003ZM526.054 337.1V380H528.054V337.1H526.054ZM527.054 379H508.454V381H527.054V379ZM509.454 380V325.7H507.454V380H509.454ZM509.454 325.7C509.454 317.668 509.052 310.475 508.246 304.124L506.262 304.376C507.055 310.625 507.454 317.732 507.454 325.7H509.454ZM507.254 305.25H524.804V303.25H507.254V305.25ZM523.81 304.358L525.16 316.808L527.148 316.592L525.798 304.142L523.81 304.358ZM527.024 317.192C529.54 312.742 532.912 309.326 537.148 306.919L536.16 305.181C531.595 307.774 527.968 311.458 525.283 316.208L527.024 317.192ZM537.14 306.924C541.478 304.514 546.359 303.3 551.804 303.3V301.3C546.049 301.3 540.83 302.586 536.168 305.176L537.14 306.924Z" fill="#303841"/>
<path d="M354.109 389.04C366.723 389.04 376.109 392.853 382.269 400.48C388.429 407.96 391.509 419.4 391.509 434.8V503H364.009V435.68C364.009 426.88 362.543 420.573 359.609 416.76C356.823 412.8 352.129 410.82 345.529 410.82C337.903 410.82 331.889 413.533 327.489 418.96C323.236 424.24 321.109 431.573 321.109 440.96V503H293.609V435.68C293.609 427.027 292.069 420.72 288.989 416.76C286.056 412.8 281.363 410.82 274.909 410.82C267.283 410.82 261.269 413.533 256.869 418.96C252.469 424.24 250.269 431.573 250.269 440.96V503H222.989V423.36C222.989 411.627 222.403 401.14 221.229 391.9H246.969L248.949 409.5C252.176 402.9 256.796 397.84 262.809 394.32C268.969 390.8 276.009 389.04 283.929 389.04C300.943 389.04 312.016 396.08 317.149 410.16C320.669 403.56 325.656 398.427 332.109 394.76C338.709 390.947 346.043 389.04 354.109 389.04ZM528.22 391.9V499.48C528.22 516.787 523.454 529.913 513.92 538.86C504.387 547.807 490.38 552.28 471.9 552.28C454.74 552.28 439.634 548.687 426.58 541.5L430.98 520.6C444.474 527.64 457.894 531.16 471.24 531.16C491.04 531.16 500.94 521.333 500.94 501.68V479.68C497.567 485.693 492.654 490.607 486.2 494.42C479.747 498.087 472.487 499.92 464.42 499.92C454.74 499.92 446.087 497.647 438.46 493.1C430.98 488.407 425.114 481.88 420.86 473.52C416.754 465.013 414.7 455.333 414.7 444.48C414.7 433.627 416.754 424.02 420.86 415.66C425.114 407.153 430.98 400.627 438.46 396.08C446.087 391.387 454.74 389.04 464.42 389.04C472.634 389.04 479.894 390.8 486.2 394.32C492.654 397.693 497.567 402.46 500.94 408.62V391.9H528.22ZM471.68 478.36C480.774 478.36 487.887 475.353 493.02 469.34C498.3 463.327 500.94 455.04 500.94 444.48C500.94 433.92 498.374 425.633 493.24 419.62C488.107 413.607 480.92 410.6 471.68 410.6C462.587 410.6 455.4 413.607 450.12 419.62C444.987 425.633 442.42 433.92 442.42 444.48C442.42 455.04 444.987 463.327 450.12 469.34C455.4 475.353 462.587 478.36 471.68 478.36Z" fill="#4EA699"/>
<path d="M382.269 400.48L381.491 401.108L381.497 401.116L382.269 400.48ZM391.509 503V504H392.509V503H391.509ZM364.009 503H363.009V504H364.009V503ZM359.609 416.76L358.791 417.335L358.804 417.353L358.817 417.37L359.609 416.76ZM327.489 418.96L326.713 418.33L326.711 418.333L327.489 418.96ZM321.109 503V504H322.109V503H321.109ZM293.609 503H292.609V504H293.609V503ZM288.989 416.76L288.186 417.355L288.193 417.365L288.2 417.374L288.989 416.76ZM256.869 418.96L257.638 419.6L257.646 419.59L256.869 418.96ZM250.269 503V504H251.269V503H250.269ZM222.989 503H221.989V504H222.989V503ZM221.229 391.9V390.9H220.094L220.237 392.026L221.229 391.9ZM246.969 391.9L247.963 391.788L247.863 390.9H246.969V391.9ZM248.949 409.5L247.956 409.612L248.339 413.024L249.848 409.939L248.949 409.5ZM262.809 394.32L262.313 393.452L262.304 393.457L262.809 394.32ZM317.149 410.16L316.21 410.503L316.977 412.608L318.032 410.631L317.149 410.16ZM332.109 394.76L332.603 395.629L332.61 395.626L332.109 394.76ZM354.109 390.04C366.514 390.04 375.573 393.781 381.491 401.108L383.047 399.852C376.645 391.926 366.931 388.04 354.109 388.04V390.04ZM381.497 401.116C387.445 408.338 390.509 419.504 390.509 434.8H392.509C392.509 419.296 389.414 407.582 383.041 399.844L381.497 401.116ZM390.509 434.8V503H392.509V434.8H390.509ZM391.509 502H364.009V504H391.509V502ZM365.009 503V435.68H363.009V503H365.009ZM365.009 435.68C365.009 426.82 363.542 420.233 360.402 416.15L358.817 417.37C361.543 420.914 363.009 426.94 363.009 435.68H365.009ZM360.427 416.185C357.39 411.868 352.326 409.82 345.529 409.82V411.82C351.932 411.82 356.256 413.732 358.791 417.335L360.427 416.185ZM345.529 409.82C337.633 409.82 331.321 412.646 326.713 418.33L328.266 419.59C332.457 414.421 338.173 411.82 345.529 411.82V409.82ZM326.711 418.333C322.268 423.848 320.109 431.432 320.109 440.96H322.109C322.109 431.715 324.204 424.632 328.268 419.587L326.711 418.333ZM320.109 440.96V503H322.109V440.96H320.109ZM321.109 502H293.609V504H321.109V502ZM294.609 503V435.68H292.609V503H294.609ZM294.609 435.68C294.609 426.949 293.063 420.369 289.779 416.146L288.2 417.374C291.075 421.071 292.609 427.104 292.609 435.68H294.609ZM289.793 416.165C286.615 411.875 281.572 409.82 274.909 409.82V411.82C281.153 411.82 285.497 413.725 288.186 417.355L289.793 416.165ZM274.909 409.82C267.013 409.82 260.701 412.646 256.093 418.33L257.646 419.59C261.837 414.421 267.553 411.82 274.909 411.82V409.82ZM256.101 418.32C251.505 423.836 249.269 431.425 249.269 440.96H251.269C251.269 431.722 253.434 424.644 257.638 419.6L256.101 418.32ZM249.269 440.96V503H251.269V440.96H249.269ZM250.269 502H222.989V504H250.269V502ZM223.989 503V423.36H221.989V503H223.989ZM223.989 423.36C223.989 411.595 223.401 401.065 222.221 391.774L220.237 392.026C221.404 401.215 221.989 411.659 221.989 423.36H223.989ZM221.229 392.9H246.969V390.9H221.229V392.9ZM245.976 392.012L247.956 409.612L249.943 409.388L247.963 391.788L245.976 392.012ZM249.848 409.939C252.993 403.506 257.481 398.598 263.314 395.183L262.304 393.457C256.111 397.082 251.359 402.294 248.051 409.061L249.848 409.939ZM263.305 395.188C269.297 391.764 276.163 390.04 283.929 390.04V388.04C275.856 388.04 268.641 389.836 262.313 393.452L263.305 395.188ZM283.929 390.04C292.301 390.04 299.123 391.772 304.458 395.164C309.783 398.549 313.707 403.639 316.21 410.503L318.089 409.817C315.458 402.601 311.279 397.131 305.531 393.476C299.793 389.828 292.571 388.04 283.929 388.04V390.04ZM318.032 410.631C321.463 404.196 326.316 399.202 332.603 395.629L331.615 393.891C324.996 397.651 319.875 402.924 316.267 409.689L318.032 410.631ZM332.61 395.626C339.049 391.906 346.208 390.04 354.109 390.04V388.04C345.878 388.04 338.37 389.988 331.609 393.894L332.61 395.626ZM528.22 391.9H529.22V390.9H528.22V391.9ZM513.92 538.86L513.236 538.131L513.236 538.131L513.92 538.86ZM426.58 541.5L425.602 541.294L425.449 542.019L426.098 542.376L426.58 541.5ZM430.98 520.6L431.443 519.713L430.274 519.103L430.002 520.394L430.98 520.6ZM500.94 479.68H501.94V475.853L500.068 479.191L500.94 479.68ZM486.2 494.42L486.694 495.289L486.702 495.285L486.709 495.281L486.2 494.42ZM438.46 493.1L437.929 493.947L437.939 493.953L437.948 493.959L438.46 493.1ZM420.86 473.52L419.96 473.955L419.964 473.964L419.969 473.973L420.86 473.52ZM420.86 415.66L419.966 415.213L419.963 415.219L420.86 415.66ZM438.46 396.08L438.98 396.935L438.984 396.932L438.46 396.08ZM486.2 394.32L485.713 395.193L485.725 395.2L485.737 395.206L486.2 394.32ZM500.94 408.62L500.063 409.1L501.94 408.62H500.94ZM500.94 391.9V390.9H499.94V391.9H500.94ZM493.02 469.34L492.269 468.68L492.26 468.691L493.02 469.34ZM493.24 419.62L492.48 420.269L492.48 420.269L493.24 419.62ZM450.12 419.62L449.369 418.96L449.36 418.971L450.12 419.62ZM450.12 469.34L449.36 469.989L449.369 470L450.12 469.34ZM527.22 391.9V499.48H529.22V391.9H527.22ZM527.22 499.48C527.22 516.604 522.509 529.429 513.236 538.131L514.605 539.589C524.399 530.398 529.22 516.969 529.22 499.48H527.22ZM513.236 538.131C503.953 546.843 490.231 551.28 471.9 551.28V553.28C490.529 553.28 504.821 548.771 514.605 539.589L513.236 538.131ZM471.9 551.28C454.883 551.28 439.947 547.718 427.063 540.624L426.098 542.376C439.32 549.656 454.598 553.28 471.9 553.28V551.28ZM427.559 541.706L431.959 520.806L430.002 520.394L425.602 541.294L427.559 541.706ZM430.518 521.487C444.134 528.591 457.711 532.16 471.24 532.16V530.16C458.076 530.16 444.814 526.689 431.443 519.713L430.518 521.487ZM471.24 532.16C481.293 532.16 489.016 529.665 494.22 524.5C499.425 519.333 501.94 511.663 501.94 501.68H499.94C499.94 511.351 497.506 518.42 492.811 523.08C488.115 527.742 480.988 530.16 471.24 530.16V532.16ZM501.94 501.68V479.68H499.94V501.68H501.94ZM500.068 479.191C496.789 485.037 492.007 489.827 485.692 493.559L486.709 495.281C493.301 491.386 498.346 486.35 501.813 480.169L500.068 479.191ZM485.706 493.551C479.417 497.124 472.329 498.92 464.42 498.92V500.92C472.645 500.92 480.078 499.049 486.694 495.289L485.706 493.551ZM464.42 498.92C454.904 498.92 446.43 496.687 438.972 492.241L437.948 493.959C445.744 498.606 454.577 500.92 464.42 500.92V498.92ZM438.992 492.253C431.675 487.662 425.928 481.276 421.752 473.067L419.969 473.973C424.299 482.484 430.286 489.151 437.929 493.947L438.992 492.253ZM421.761 473.085C417.729 464.733 415.7 455.205 415.7 444.48H413.7C413.7 455.461 415.779 465.294 419.96 473.955L421.761 473.085ZM415.7 444.48C415.7 433.754 417.729 424.303 421.758 416.101L419.963 415.219C415.778 423.737 413.7 433.499 413.7 444.48H415.7ZM421.755 416.107C425.932 407.754 431.675 401.375 438.98 396.935L437.941 395.225C430.286 399.878 424.296 406.553 419.966 415.213L421.755 416.107ZM438.984 396.932C446.441 392.343 454.91 390.04 464.42 390.04V388.04C454.571 388.04 445.733 390.43 437.936 395.228L438.984 396.932ZM464.42 390.04C472.487 390.04 479.575 391.767 485.713 395.193L486.688 393.447C480.213 389.833 472.781 388.04 464.42 388.04V390.04ZM485.737 395.206C492.022 398.492 496.788 403.12 500.063 409.1L501.817 408.14C498.346 401.8 493.285 396.895 486.664 393.434L485.737 395.206ZM501.94 408.62V391.9H499.94V408.62H501.94ZM500.94 392.9H528.22V390.9H500.94V392.9ZM471.68 479.36C481.017 479.36 488.428 476.26 493.781 469.989L492.26 468.691C487.346 474.447 480.53 477.36 471.68 477.36V479.36ZM493.772 470C499.257 463.752 501.94 455.204 501.94 444.48H499.94C499.94 454.876 497.343 462.901 492.269 468.68L493.772 470ZM501.94 444.48C501.94 433.763 499.334 425.218 494.001 418.971L492.48 420.269C497.413 426.048 499.94 434.077 499.94 444.48H501.94ZM494.001 418.971C488.645 412.696 481.158 409.6 471.68 409.6V411.6C480.682 411.6 487.569 414.517 492.48 420.269L494.001 418.971ZM471.68 409.6C462.343 409.6 454.866 412.7 449.369 418.96L450.872 420.28C455.935 414.513 462.831 411.6 471.68 411.6V409.6ZM449.36 418.971C444.027 425.218 441.42 433.763 441.42 444.48H443.42C443.42 434.077 445.947 426.048 450.881 420.269L449.36 418.971ZM441.42 444.48C441.42 455.197 444.027 463.742 449.36 469.989L450.881 468.691C445.947 462.912 443.42 454.883 443.42 444.48H441.42ZM449.369 470C454.866 476.26 462.343 479.36 471.68 479.36V477.36C462.831 477.36 455.935 474.447 450.872 468.68L449.369 470Z" fill="#303841"/>
<path d="M564.571 530.211L564.312 531.177L565.279 531.436L591.589 538.466L592.554 538.724L592.813 537.759L663.949 272.317L664.208 271.351L663.242 271.092L636.918 264.034L635.952 263.775L635.694 264.741L564.571 530.211Z" fill="#F7F7F7" stroke="#303841" stroke-width="2"/>
<path d="M776.17 401.957L776.877 401.25L776.17 400.543L682.548 306.918L681.841 306.211L681.134 306.918L662.276 325.777L661.569 326.483L662.275 327.19L736.2 401.25L662.275 475.31L661.569 476.017L662.276 476.723L681.134 495.582L681.841 496.289L682.548 495.582L776.17 401.957Z" fill="#F7F7F7" stroke="#303841" stroke-width="2"/>
<path d="M35.6679 399.293L34.9608 400L35.6679 400.707L129.293 494.332L130 495.039L130.707 494.332L149.566 475.473L150.272 474.767L149.566 474.06L75.6392 400L149.566 325.94L150.272 325.233L149.566 324.527L130.707 305.668L130 304.961L129.293 305.668L35.6679 399.293Z" fill="#F7F7F7" stroke="#303841" stroke-width="2"/>
</svg>
