<svg id="visual" viewBox="0 0 960 540" width="960" height="540" xmlns="http://www.w3.org/2000/svg" xmlns:xlink="http://www.w3.org/1999/xlink" version="1.1"><path d="M0 278L22.8 276.5C45.7 275 91.3 272 137 263.8C182.7 255.7 228.3 242.3 274 236.2C319.7 230 365.3 231 411.2 249.3C457 267.7 503 303.3 548.8 311.5C594.7 319.7 640.3 300.3 686 287C731.7 273.7 777.3 266.3 823 275C868.7 283.7 914.3 308.3 937.2 320.7L960 333L960 0L937.2 0C914.3 0 868.7 0 823 0C777.3 0 731.7 0 686 0C640.3 0 594.7 0 548.8 0C503 0 457 0 411.2 0C365.3 0 319.7 0 274 0C228.3 0 182.7 0 137 0C91.3 0 45.7 0 22.8 0L0 0Z" fill="#303841" stroke-linecap="round" stroke-linejoin="miter"></path></svg>